# xmcd
#
# Track frame offsets:
#	150
#	20093
#	34385
#	54926
#	70342
#	79339
#	86801
#	99518
#	113395
#	123454
#	138884
#	154382
#	165997
#	178654
#	188689
#	208029
#	221629
#	239153
#
# Disc length: 3523 seconds
#
# Revision: 1
# Processed by: cddbd v1.4PL0 Copyright (c) Steve Scherf et al.
# Submitted via: CDmax 1.8
#
DISCID=000dc112
DTITLE=Dave Harris - Out Of The Blues Box
DYEAR=2001
DGENRE=Blues
TTITLE0=Mystery Train
TTITLE1=Going Down To New Orleans
TTITLE2=Blue Light Boogie
TTITLE3=Things To Do For You
TTITLE4=Goin' Downtown
TTITLE5=The Mustard March
TTITLE6=I Want Too Much
TTITLE7=Give Them Their Flowers
TTITLE8=I'm Going Down South
TTITLE9=That's Your Daddy Yaddy Yo
TTITLE10=I Love My Baby
TTITLE11=San Francisco Bay Blues
TTITLE12=The Old Blues Songs
TTITLE13=Under The Empress
TTITLE14=You Don't Know My Mind/You Missed A Good Man
TTITLE15=Strung Out
TTITLE16=Crowded At The Bottom
TTITLE17=Going To Chicago/Fiddle Boogie
EXTD=
EXTT0=
EXTT1=
EXTT2=
EXTT3=
EXTT4=
EXTT5=
EXTT6=
EXTT7=
EXTT8=
EXTT9=
EXTT10=
EXTT11=
EXTT12=
EXTT13=
EXTT14=
EXTT15=
EXTT16=
EXTT17=
PLAYORDER=
